# xmcd
#
# Track frame offsets:
#	150
#	15608
#	32144
#	47165
#	58806
#	78476
#	94358
#	106495
#	116373
#	128122
#
# Disc length: 1889 seconds
#
# Revision: 1
# Processed by: cddbd v1.4PL0 Copyright (c) Steve Scherf et al.
# Submitted via: CDmax 1.9
#
DISCID=83075f0a
DTITLE=George Strait - Lead On
DYEAR=1994
DGENRE=Country
TTITLE0=You Can't Make A Heart Love Somebody
TTITLE1=Adalida
TTITLE2=I Met A Friend Of Yours Today
TTITLE3=Nobody Has To Get Hurt
TTITLE4=Down Louisiana Way
TTITLE5=Lead On
TTITLE6=What Am I Waiting For
TTITLE7=Big One, The
TTITLE8=I'll Always Be Loving You
TTITLE9=No One But You
EXTD=
EXTT0=
EXTT1=
EXTT2=
EXTT3=
EXTT4=
EXTT5=
EXTT6=
EXTT7=
EXTT8=
EXTT9=
PLAYORDER=
